# xmcd CD database file
#
# Track frame offsets:
#	150
#	18905
#	35108
#	57177
#	73308
#	89690
#	111037
#	128460
#	145997
#	161034
#	181799
#	196712
#	210884
#
# Disc length: 2972 seconds
#
# Revision: 0
# Processed by: cddbd v1.5.2PL0 Copyright (c) Steve Scherf et al.
# Submitted via: CDex 1.51
#
DISCID=b00b9a0d
DTITLE=Eriksson Delcroix - Heart out of its mind
DYEAR=2016
DGENRE=Country
TTITLE0=The heart out of its mind
TTITLE1=Baby Blue
TTITLE2=Mistigris
TTITLE3=Arrow
TTITLE4=Big black is coming
TTITLE5=A low ripple till Idaho
TTITLE6=Silver dagger
TTITLE7=56 7th Street
TTITLE8=Now I'm free
TTITLE9=Snakebite
TTITLE10=Lay low
TTITLE11=Song of silence
TTITLE12=Dead bird
EXTD=YEAR: 2016
EXTT0=
EXTT1=
EXTT2=
EXTT3=
EXTT4=
EXTT5=
EXTT6=
EXTT7=
EXTT8=
EXTT9=
EXTT10=
EXTT11=
EXTT12=
PLAYORDER=
